<svg id="Capa_1" enable-background="new 0 0 512 512" height="512" viewBox="0 0 512 512" width="512" xmlns="http://www.w3.org/2000/svg"><g><g><path d="m382.529 313.417h-281.017c-23.239 0-42.146 18.906-42.146 42.146s18.906 42.146 42.146 42.146h352.278c8.284 0 15-6.716 15-15s-6.716-15-15-15h-56.819v-24.291h56.819c8.284 0 15-6.716 15-15s-6.716-15-15-15h-71.261z"/></g><g><path d="m101.512 427.708c-23.239 0-42.146 18.907-42.146 42.146s18.907 42.146 42.146 42.146h352.278c8.284 0 15-6.716 15-15s-6.716-15-15-15h-56.819v-24.292h56.819c8.284 0 15-6.716 15-15s-6.716-15-15-15z"/></g><g><path d="m129.886 253.417h238.385v30h-238.385z"/></g><g><path d="m368.271 223.417v-82.323l-106.019 30.573c-4.078 1.176-8.274 1.764-12.469 1.764s-8.388-.587-12.466-1.764l-107.431-30.971v82.72h238.385z"/></g><g><path d="m445.66 57.955-191.575-57.326c-2.806-.839-5.795-.839-8.601 0l-191.575 57.326c-6.35 1.9-10.7 7.743-10.7 14.371s4.35 12.47 10.7 14.371l191.719 56.146c2.719.784 5.593.784 8.312 0l172.42-50.371v29.792c0 8.284 6.716 15 15 15s15-6.716 15-15v-49.938c-.001-6.628-4.351-12.47-10.7-14.371z"/></g></g></svg>