<?xml version="1.0" encoding="UTF-8" standalone="no"?>
<!-- Created with Inkscape (http://www.inkscape.org/) -->

<svg
   version="1.1"
   id="svg4575"
   xml:space="preserve"
   width="682.66669"
   height="682.66669"
   viewBox="0 0 682.66669 682.66669"
   xmlns="http://www.w3.org/2000/svg"
   xmlns:svg="http://www.w3.org/2000/svg"><defs
     id="defs4579"><clipPath
       clipPathUnits="userSpaceOnUse"
       id="clipPath4589"><path
         d="M 0,512 H 512 V 0 H 0 Z"
         id="path4587" /></clipPath></defs><g
     id="g4581"
     transform="matrix(1.3333333,0,0,-1.3333333,0,682.66667)"><g
       id="g4583"><g
         id="g4585"
         clip-path="url(#clipPath4589)"><g
           id="g4591"
           transform="translate(256,345.6514)"><path
             d="M 0,0 C 0,0 -12.411,107.349 -144.263,158.849 V 0 Z"
             style="fill:#f0f5fa;fill-opacity:1;fill-rule:nonzero;stroke:none"
             id="path4593" /></g><g
           id="g4595"
           transform="translate(256,345.6514)"><path
             d="M 0,0 C 0,0 12.411,107.349 144.263,158.849 V 0 Z"
             style="fill:#e4ecf2;fill-opacity:1;fill-rule:nonzero;stroke:none"
             id="path4597" /></g><g
           id="g4599"
           transform="translate(257.5894,345.6514)"><path
             d="M 0,0 C -57.572,102.868 -195.506,134.478 -195.506,134.478 L -222.902,106.64 -33.321,-19.479 Z"
             style="fill:#e4ecf2;fill-opacity:1;fill-rule:nonzero;stroke:none"
             id="path4601" /></g><g
           id="g4603"
           transform="translate(254.4106,345.6514)"><path
             d="M 0,0 C 57.572,102.868 195.506,134.478 195.506,134.478 L 222.902,106.64 33.321,-19.479 Z"
             style="fill:#f0f5fa;fill-opacity:1;fill-rule:nonzero;stroke:none"
             id="path4605" /></g><g
           id="g4607"
           transform="translate(497.9028,124.6328)"><path
             d="m 0,0 -193.333,-108.75 c -6.667,-3.75 -14.903,1.067 -14.903,8.716 l -10,158.901 10,156.303 c 0,3.612 1.948,6.944 5.097,8.716 l 193.333,108.75 c 6.667,3.749 14.903,-1.068 14.903,-8.716 V 8.716 C 5.097,5.103 3.148,1.771 0,0"
             style="fill:#ff8ae0;fill-opacity:1;fill-rule:nonzero;stroke:none"
             id="path4609" /></g><g
           id="g4611"
           transform="translate(488.0977,457.2686)"><path
             d="M 0,0 -25.098,-14.117 V -323.92 c 0,-3.613 -1.948,-6.944 -5.097,-8.716 l -168.236,-94.633 v -5.401 c 0,-7.648 8.237,-12.466 14.903,-8.716 l 193.333,108.75 c 3.149,1.772 5.097,5.103 5.097,8.716 V -8.716 C 14.902,-1.067 6.666,3.749 0,0"
             style="fill:#ff70d9;fill-opacity:1;fill-rule:nonzero;stroke:none"
             id="path4613" /></g><g
           id="g4615"
           transform="translate(207.4307,15.8828)"><path
             d="m 0,0 -193.333,108.75 c -3.149,1.771 -5.098,5.103 -5.098,8.716 V 432.67 c 0,7.648 8.237,12.465 14.903,8.716 L 9.805,332.636 c 3.149,-1.772 5.098,-5.104 5.098,-8.716 V 8.716 C 14.903,1.067 6.666,-3.75 0,0"
             style="fill:#ff8ae0;fill-opacity:1;fill-rule:nonzero;stroke:none"
             id="path4617" /></g><g
           id="g4619"
           transform="translate(217.2358,348.5186)"><path
             d="m 0,0 -193.333,108.75 c -6.667,3.749 -14.903,-1.067 -14.903,-8.716 V 94.633 L -40,0 c 3.149,-1.771 5.098,-5.104 5.098,-8.716 v -309.803 l 25.097,-14.117 c 6.666,-3.75 14.903,1.068 14.903,8.716 l 10,158.401 -10,156.803 C 5.098,-5.104 3.149,-1.771 0,0"
             style="fill:#ff70d9;fill-opacity:1;fill-rule:nonzero;stroke:none"
             id="path4621" /></g><g
           id="g4623"
           transform="translate(466.3359,326.1689)"><path
             d="m 0,0 -140.005,-80 v 48.351 L 0,48.351 Z"
             style="fill:#ffffff;fill-opacity:1;fill-rule:nonzero;stroke:none"
             id="path4625" /></g><g
           id="g4627"
           transform="translate(279.6665,7.5)"><path
             d="m 0,0 h -47.333 c -5.523,0 -10,4.478 -10,10 v 318.151 c 0,5.523 4.477,10 10,10 H 0 c 5.523,0 10,-4.477 10,-10 V 10 C 10,4.478 5.523,0 0,0"
             style="fill:#ff8ae0;fill-opacity:1;fill-rule:nonzero;stroke:none"
             id="path4629" /></g><g
           id="g4631"
           transform="translate(279.6665,345.6514)"><path
             d="m 0,0 h -34 c 5.523,0 10,-4.478 10,-10 v -318.151 c 0,-5.523 -4.477,-10 -10,-10 H 0 c 5.523,0 10,4.477 10,10 V -10 C 10,-4.478 5.523,0 0,0"
             style="fill:#ff70d9;fill-opacity:1;fill-rule:nonzero;stroke:none"
             id="path4633" /></g><path
           d="m 289.667,277.435 h -67.333 v 33.333 h 67.333 z"
           style="fill:#ffda45;fill-opacity:1;fill-rule:nonzero;stroke:none"
           id="path4635" /><path
           d="m 289.667,42.383 h -67.333 v 33.334 h 67.333 z"
           style="fill:#ffda45;fill-opacity:1;fill-rule:nonzero;stroke:none"
           id="path4637" /><g
           id="g4639"
           transform="translate(256,345.6514)"><path
             d="m 0,0 c 0,0 -12.411,107.349 -144.263,158.849 v -41.01"
             style="fill:none;stroke:#060606;stroke-width:15;stroke-linecap:round;stroke-linejoin:round;stroke-miterlimit:10;stroke-dasharray:none;stroke-opacity:1"
             id="path4641" /></g><g
           id="g4643"
           transform="translate(256,345.6514)"><path
             d="M 0,0 C 0,0 12.411,107.349 144.263,158.849 V 117.838"
             style="fill:none;stroke:#060606;stroke-width:15;stroke-linecap:round;stroke-linejoin:round;stroke-miterlimit:10;stroke-dasharray:none;stroke-opacity:1"
             id="path4645" /></g><g
           id="g4647"
           transform="translate(146.1387,447.4219)"><path
             d="M 0,0 C -45.127,23.786 -84.056,32.707 -84.056,32.707 L -111.451,4.869"
             style="fill:none;stroke:#060606;stroke-width:15;stroke-linecap:round;stroke-linejoin:round;stroke-miterlimit:10;stroke-dasharray:none;stroke-opacity:1"
             id="path4649" /></g><g
           id="g4651"
           transform="translate(257.5894,345.6514)"><path
             d="M 0,0 C -17.951,32.074 -43.714,57.22 -70.673,76.641"
             style="fill:none;stroke:#060606;stroke-width:15;stroke-linecap:round;stroke-linejoin:round;stroke-miterlimit:10;stroke-dasharray:none;stroke-opacity:1"
             id="path4653" /></g><g
           id="g4655"
           transform="translate(254.4106,345.6514)"><path
             d="M 0,0 C 57.572,102.868 195.506,134.478 195.506,134.478 L 222.902,106.64"
             style="fill:none;stroke:#060606;stroke-width:15;stroke-linecap:round;stroke-linejoin:round;stroke-miterlimit:10;stroke-dasharray:none;stroke-opacity:1"
             id="path4657" /></g><g
           id="g4659"
           transform="translate(279.6665,7.5)"><path
             d="m 0,0 h -47.333 c -5.523,0 -10,4.478 -10,10 v 318.151 c 0,5.523 4.477,10 10,10 H 0 c 5.523,0 10,-4.477 10,-10 V 10 C 10,4.478 5.523,0 0,0 Z"
             style="fill:none;stroke:#060606;stroke-width:15;stroke-linecap:round;stroke-linejoin:round;stroke-miterlimit:10;stroke-dasharray:none;stroke-opacity:1"
             id="path4661" /></g><path
           d="m 289.667,277.435 h -67.333 v 33.333 h 67.333 z"
           style="fill:none;stroke:#060606;stroke-width:15;stroke-linecap:round;stroke-linejoin:round;stroke-miterlimit:10;stroke-dasharray:none;stroke-opacity:1"
           id="path4663" /><path
           d="m 289.667,42.383 h -67.333 v 33.334 h 67.333 z"
           style="fill:none;stroke:#060606;stroke-width:15;stroke-linecap:round;stroke-linejoin:round;stroke-miterlimit:10;stroke-dasharray:none;stroke-opacity:1"
           id="path4665" /><g
           id="g4667"
           transform="translate(256,221.5752)"><path
             d="M 0,0 V -90"
             style="fill:none;stroke:#060606;stroke-width:15;stroke-linecap:round;stroke-linejoin:round;stroke-miterlimit:10;stroke-dasharray:none;stroke-opacity:1"
             id="path4669" /></g><g
           id="g4671"
           transform="translate(503,173.5752)"><path
             d="m 0,0 v -40.227 c 0,-3.613 -1.949,-6.944 -5.097,-8.715 l -193.334,-108.75 c -6.666,-3.75 -14.902,1.067 -14.902,8.715 v 315.205 c 0,3.612 1.948,6.944 5.097,8.715 l 193.333,108.75 C -8.236,287.442 0,282.626 0,274.978 V 48"
             style="fill:none;stroke:#060606;stroke-width:15;stroke-linecap:round;stroke-linejoin:round;stroke-miterlimit:10;stroke-dasharray:none;stroke-opacity:1"
             id="path4673" /></g><g
           id="g4675"
           transform="translate(207.4307,15.8828)"><path
             d="m 0,0 -193.333,108.75 c -3.149,1.771 -5.098,5.103 -5.098,8.716 V 432.67 c 0,7.648 8.237,12.465 14.903,8.716 L 9.805,332.636 c 3.149,-1.772 5.098,-5.104 5.098,-8.716 V 8.716 C 14.903,1.067 6.666,-3.75 0,0 Z"
             style="fill:none;stroke:#060606;stroke-width:15;stroke-linecap:round;stroke-linejoin:round;stroke-miterlimit:10;stroke-dasharray:none;stroke-opacity:1"
             id="path4677" /></g><g
           id="g4679"
           transform="translate(466.3359,326.1689)"><path
             d="m 0,0 -140.005,-80 v 48.351 L 0,48.351 Z"
             style="fill:none;stroke:#060606;stroke-width:15;stroke-linecap:round;stroke-linejoin:round;stroke-miterlimit:10;stroke-dasharray:none;stroke-opacity:1"
             id="path4681" /></g></g></g></g></svg>
